HIERARCHY
ROOT Hips
{
  OFFSET -35.2597 29.1586 114.425
  CHANNELS 6 Xposition Yposition Zposition Zrotation Xrotation Yrotation
  JOINT LeftUpLeg
  {
    OFFSET 8.64259 1.95398 -2.38835
    CHANNELS 3 Zrotation Xrotation Yrotation
    JOINT LeftLeg
    {
      OFFSET 43.7702 0 0
      CHANNELS 3 Zrotation Xrotation Yrotation
      JOINT LeftFoot
      {
        OFFSET 40.6238 0 0
        CHANNELS 3 Zrotation Xrotation Yrotation
        JOINT LeftToeBase
        {
          OFFSET 12.7242 0 0
          CHANNELS 3 Zrotation Xrotation Yrotation
          End Site
          {
            OFFSET 0 0 0
          }
        }
      }
    }
  }
  JOINT RightUpLeg
  {
    OFFSET -8.2249 1.95398 -2.59336
    CHANNELS 3 Zrotation Xrotation Yrotation
    JOINT RightLeg
    {
      OFFSET 43.5653 0 0
      CHANNELS 3 Zrotation Xrotation Yrotation
      JOINT RightFoot
      {
        OFFSET 40.6238 0 0
        CHANNELS 3 Zrotation Xrotation Yrotation
        JOINT RightToeBase
        {
          OFFSET 12.7242 0 0
          CHANNELS 3 Zrotation Xrotation Yrotation
          End Site
          {
            OFFSET 0 0 0
          }
        }
      }
    }
  }
  JOINT Spine
  {
    OFFSET 0.165834 0.87714 6.61349
    CHANNELS 3 Zrotation Xrotation Yrotation
    JOINT Spine1
    {
      OFFSET 7.38963 1.71661e-005 0
      CHANNELS 3 Zrotation Xrotation Yrotation
      JOINT Spine2
      {
        OFFSET 11.9445 1.14441e-005 0
        CHANNELS 3 Zrotation Xrotation Yrotation
        JOINT Spine3
        {
          OFFSET 14.7254 4.19617e-005 0
          CHANNELS 3 Zrotation Xrotation Yrotation
          JOINT Spine4
          {
            OFFSET 10.9679 0 0
            CHANNELS 3 Zrotation Xrotation Yrotation
            JOINT RightShoulder
            {
              OFFSET 2.46616 -1.6653 3.69651
              CHANNELS 3 Zrotation Xrotation Yrotation
              JOINT RightArm
              {
                OFFSET 13.0012 0 0
                CHANNELS 3 Zrotation Xrotation Yrotation
                JOINT RightForeArm
                {
                  OFFSET 28.7848 1.62311e-005 0
                  CHANNELS 3 Zrotation Xrotation Yrotation
                  JOINT RightHand
                  {
                    OFFSET 26.5688 1.62095e-005 0
                    CHANNELS 3 Zrotation Xrotation Yrotation
                    End Site
                    {
                      OFFSET 0 0 0
                    }
                  }
                }
              }
            }
            JOINT LeftShoulder
            {
              OFFSET 2.38034 -1.29275 -3.7523
              CHANNELS 3 Zrotation Xrotation Yrotation
              JOINT LeftArm
              {
                OFFSET 16.3182 6.07031e-005 0
                CHANNELS 3 Zrotation Xrotation Yrotation
                JOINT LeftForeArm
                {
                  OFFSET 27.0901 0 0
                  CHANNELS 3 Zrotation Xrotation Yrotation
                  JOINT LeftHand
                  {
                    OFFSET 24.5451 1.51738e-005 0
                    CHANNELS 3 Zrotation Xrotation Yrotation
                    End Site
                    {
                      OFFSET 0 0 0
                    }
                  }
                }
              }
            }
            JOINT Neck
            {
              OFFSET 5.0226 -0.0266342 0
              CHANNELS 3 Zrotation Xrotation Yrotation
              JOINT Head
              {
                OFFSET 6.69364 2.86102e-005 0
                CHANNELS 3 Zrotation Xrotation Yrotation
                End Site
                {
                  OFFSET 0 0 0
                }
              }
            }
          }
        }
      }
    }
  }
}
MOTION
Frames:	17
Frame Time:	0.0416667
-358.631 95.3095 331.411 97.2555 28.0321 81.053 -168.197 -4.10282 92.8617 11.2612 50.924 -17.746 20.6631 -62.6554 42.8829 98.3642 20.0758 -39.1412 176.182 -3.41681 88.3552 -19.1345 -14.9583 -5.86491 71.4289 -6.10698 -10.045 26.237 -2.42365 11.2291 8.84422 3.588 -88.7917 20.1456 17.9402 -1.43009 8.60164 17.8593 -2.24454 -14.9342 17.5128 4.20508 5.07842 17.5128 4.20508 83.7167 61.4743 -37.5911 108.16 24.9566 47.5822 175.129 21.8935 -179.87 -7.83979 1.46059 -28.3522 -100.029 -34.0557 57.0277 -30.6429 -12.3955 4.16017 176.235 63.2423 -177.357 -72.8865 17.2947 -28.7718 -49.4284 -14.595 -35.1178 -20.1198 -21.8924 -33.8504 
-358.728 95.3112 331.384 97.2354 28.0835 80.9269 -168.375 -4.22809 92.6304 10.6378 50.628 -17.3904 18.76 -62.2521 40.4882 98.5092 20.3831 -37.7655 176 -3.47897 88.2436 -19.0795 -14.3248 -5.7867 72.582 -7.41111 -11.9775 23.1996 -3.22081 16.5381 8.87025 3.66868 -88.7743 19.9779 18.0069 -1.36915 8.43505 17.9286 -2.18694 -15.1072 17.5579 4.28483 4.9055 17.5579 4.28482 83.5999 60.613 -35.9988 107.6 24.6064 47.2736 175.075 22.9629 -179.844 -7.35647 1.37615 -28.6028 -100.148 -33.4072 56.4861 -30.5234 -12.6724 6.28105 176.626 60.992 -177.748 -90.7699 29.759 -34.3186 -49.0512 -14.7957 -35.0904 -19.6541 -21.9953 -34.0768 
-359.012 95.2612 331.322 97.1734 28.2534 80.6069 -169.287 -3.99354 91.6301 6.87707 49.5521 -15.2285 17.0266 -60.8547 36.6927 98.5059 21.0541 -34.6771 175.263 -3.84287 87.753 -18.2844 -13.3314 -5.38969 75.2289 -11.3492 -17.781 17.1174 -7.05837 31.4224 8.82458 3.89195 -88.7385 19.5013 17.9545 -1.17241 7.95793 17.8849 -1.98795 -15.5739 17.4492 4.45374 4.43876 17.4492 4.45374 83.5808 58.2044 -31.9029 106.972 22.9531 45.4937 174.911 26.0625 -179.759 -6.12774 1.17274 -29.6343 -100.088 -32.328 56.0132 -29.9799 -13.5176 12.9872 176.737 60.2813 -177.861 -116.93 50.5334 -38.443 -47.9198 -15.0128 -34.8787 -17.9354 -22.1517 -33.7349 
-359.437 95.065 331.266 97.0649 28.5695 80.1885 -170.766 -3.22781 89.9993 0.338654 47.2984 -11.712 16.9403 -58.1384 32.978 97.9731 21.9501 -30.2572 174.537 -4.44171 87.1256 -16.0864 -10.8173 -5.04379 78.0235 -17.6921 -26.2417 18.9002 -15.967 56.8304 8.69263 4.235 -88.7226 18.7684 17.7298 -0.923484 7.22209 17.6715 -1.72848 -16.2786 17.1614 4.61527 3.73408 17.1614 4.61526 84.983 53.9369 -27.1295 106.544 19.7366 41.9322 174.659 30.5131 -179.616 -3.72989 0.708368 -31.5941 -100.141 -31.4011 55.4156 -29.2175 -14.1946 18.4631 175.903 64.8875 -177.028 -132.677 58.6108 -33.5867 -45.8434 -15.4683 -34.0529 -15.3991 -22.2847 -32.6052 
-359.928 94.9143 331.221 96.8979 29.0615 79.7732 -171.902 -2.6548 88.6994 -5.40801 43.6303 -8.94256 18.1577 -53.6586 29.4921 96.2409 22.7963 -24.9174 174.019 -4.57208 85.9935 -13.7293 -7.33419 -4.79176 79.882 -25.1106 -35.7704 38.6858 -18.6172 86.2392 8.4203 4.67288 -88.7409 17.8313 17.2141 -0.649348 6.27786 17.1683 -1.42979 -17.1595 16.5896 4.70543 2.85312 16.5896 4.70542 88.7597 47.3506 -22.7991 106.092 14.6523 36.2889 174.276 36.5125 -179.371 0.00786438 -0.194535 -34.9076 -100.004 -30.8876 55.3718 -29.4595 -14.4985 22.0613 176.05 64.1709 -177.176 -132.344 66.5543 -38.4453 -42.6268 -15.9908 -32.5004 -12.0885 -22.2185 -29.9699 
-360.425 95.0363 331.201 96.6494 29.7578 79.4658 -173.191 -2.76262 87.4041 -9.57147 36.9291 -6.07293 20.2031 -47.8921 25.8185 93.9286 23.461 -19.0934 173.685 -2.68422 84.0312 -14.9186 -2.08362 -4.32628 82.6471 -31.8184 -43.0636 63.1684 -8.06287 101.215 9.81837 6.14749 -86.1501 14.2656 21.3202 4.70489 2.77422 21.5058 3.71802 -20.9036 18.8919 11.1002 -0.890993 18.8919 11.1002 101.296 29.4926 -7.80925 103.923 10.9612 31.9077 174.396 34.7305 -179.45 3.42791 -1.27099 -38.743 -87.3406 9.18696 53.6568 -57.5344 -3.19248 1.58844 154.474 84.8683 -155.59 -146.679 63.9855 -27.0735 -23.9969 -23.6169 -64.6996 -8.02432 -28.9348 -14.9066 
-360.85 95.6435 331.225 96.2839 30.684 79.3757 -174.509 -2.87971 86.4762 -12.4348 23.9436 -3.21397 23.3517 -40.7345 21.108 92.9777 24.1002 -14.1628 173.933 0.576051 81.8499 -19.4382 5.04729 -3.93813 87.0679 -35.9578 -46.2573 82.3055 2.44973 100.228 9.06408 6.57086 -86.7615 13.5586 19.5439 3.96932 2.0381 19.6988 3.07158 -21.4724 17.425 9.82191 -1.45977 17.425 9.8219 109.304 19.6517 -8.16661 102.831 0.530031 20.3506 173.863 42.0249 -179.079 8.59328 -3.47116 -45.9045 -89.1255 3.64723 53.2208 -57.1308 -4.93361 6.40417 175.117 68.1086 -176.239 -87.6651 78.0196 -87.0529 -20.2141 -23.7841 -55.8974 -4.75639 -25.8479 -12.0107 
-361.204 96.0449 331.36 95.746 31.8607 79.6273 -175.438 0.371708 86.2175 -19.4385 -6.3517 -0.49377 27.9399 -31.4586 5.65911 98.5914 22.9215 -13.7194 174.975 5.08797 79.7071 -27.5846 14.5016 -3.68425 93.9426 -36.7542 -45.0411 96.531 7.77013 93.0462 8.29789 7.04395 -87.2238 12.6357 17.8042 3.47006 1.08891 17.939 2.6577 -22.2575 15.9208 8.7844 -2.24481 15.9208 8.78441 116.861 9.01851 -9.8601 99.5954 -8.73132 9.10637 173.174 49.4016 -178.546 11.4547 -5.50205 -53.7834 -90.186 -0.162462 54.3622 -59.3816 -4.32463 6.66014 176.93 58.9159 -178.061 -32.9736 70.713 -142.214 -14.9219 -23.0452 -47.8642 -1.70158 -22.6672 -8.58216 
-361.304 96.0533 331.523 95.2308 33.2439 80.0042 -176.324 3.70413 87.8868 -25.7235 -48.5972 3.58077 19.9921 -25.2726 -32.0682 70.6858 14.4755 91.7489 176.423 9.42777 77.8739 -36.7828 24.8399 -3.57737 100.79 -34.3436 -41.6928 106.486 9.19287 85.8823 7.41054 7.535 -87.7572 11.6901 15.79 2.82273 0.116326 15.8985 2.10735 -23.0632 14.199 7.5262 -3.05058 14.199 7.52619 122.037 -0.769126 -13.75 94.9705 -15.9894 -1.43714 171.988 58.2925 -177.537 12.4739 -7.11754 -61.8144 -91.2508 -5.02661 56.1991 -61.5688 -2.16028 3.2778 176.648 60.8188 -177.776 -24.0438 67.0048 -152.135 -8.97392 -21.4969 -38.277 0.616327 -19.1852 -5.46102 
-361.087 96.054 331.595 95.0517 34.6993 80.1519 -177.235 1.48081 88.6599 -15.6422 -71.0181 13.3875 6.07785 -16.7508 -59.3308 57.5419 -25.989 97.8539 177.689 11.9101 76.1388 -43.9717 34.2528 -3.58624 105.101 -30.3199 -38.4428 113.089 8.98594 80.2266 6.33738 7.94518 -88.3208 10.9132 13.3933 2.07826 -0.688054 13.4715 1.47598 -23.6943 12.1412 6.06319 -3.68162 12.1412 6.06318 123.297 -7.9725 -20.9524 90.2458 -21.0888 -10.5336 171.043 63.1533 -176.686 9.15722 -5.58672 -64.2362 -92.1758 -11.4114 59.0899 -61.8709 0.901579 -3.26959 171.257 77.1536 -172.546 -37.5472 76.6712 -140.808 -4.51959 -17.9035 -27.4142 2.85205 -15.1613 -4.23756 
-360.571 96.0994 331.644 94.9508 36.2847 80.5123 -177.375 -0.789592 89.4762 -3.65506 -75.5114 21.342 6.24279 -8.24476 -72.2317 58.2826 -17.6551 91.8617 178.309 13.0048 74.9007 -49.349 41.8504 -3.09152 107.024 -26.5289 -35.9501 117.657 8.15501 75.776 5.17317 8.24427 -88.871 10.3543 10.8226 1.30321 -1.27127 10.8693 0.819926 -24.1214 9.92591 4.52644 -4.10878 9.92591 4.52643 121.186 -12.7749 -31.3838 85.3897 -24.606 -18.6941 170.984 63.4119 -176.632 2.99352 -1.95396 -61.3606 -93.0148 -19.342 62.3471 -59.4657 4.58579 -13.6789 -178.719 -2.57988 -179.235 8.43252 -7.60677 -173.073 -1.14736 -13.4916 -16.096 4.06988 -11.414 -4.41762 
-359.687 96.0816 331.791 95.096 38.0025 80.9734 -176.818 -2.4094 91.1564 -0.711317 -74.6717 20.1624 14.3875 -0.850226 -81.789 61.486 -13.9136 97.3242 178.609 12.9135 74.8529 -53.0578 47.3656 -2.61696 106.357 -23.9285 -35.4113 121.131 6.82315 71.7456 4.02745 8.40111 -89.3802 10.0705 8.30806 0.538342 -1.57366 8.32363 0.169581 -24.3016 7.75984 3.02531 -4.28894 7.75985 3.02532 115.947 -14.8573 -45.9027 79.1688 -26.1542 -26.661 172.27 56.5213 -177.784 -7.87915 3.2251 -53.7357 -93.5615 -28.5323 65.9381 -46.5913 0.74013 -23.3111 2.39737 31.8989 -3.12745 36.3308 -12.3772 -7.66232 -0.147327 -8.64442 -5.36026 5.36691 -8.07916 -5.76531 
-358.464 95.8034 331.959 95.984 39.5799 80.8693 -175.877 -1.1917 92.8236 -13.222 -64.1647 7.67046 38.7451 0.646235 -85.2241 64.3746 -12.2449 105.468 177.996 11.9669 74.9671 -56.478 49.4578 -1.05004 104.762 -23.1944 -36.6871 123.587 5.41356 68.4724 3.0417 8.47555 -89.8599 9.93894 6.12593 -0.22146 -1.71761 6.11024 -0.491876 -24.3635 5.90825 1.6365 -4.35082 5.90824 1.6365 107.84 -12.2083 -66.0102 71.616 -24.6307 -33.2881 173.735 43.5681 -178.983 -23.2835 8.11578 -44.1993 -92.9343 -36.2942 70.1918 -33.4545 -7.02732 -24.7296 5.57253 61.2291 -6.66183 1.55103 -0.335316 -11.5069 -1.87593 -4.7544 4.62583 6.42921 -5.70647 -7.04632 
-356.942 94.9011 332.165 96.164 40.9996 81.0843 -175.545 9.23367 93.1235 -33.8268 -25.8627 2.20952 68.6335 0.551942 -45.3299 60.656 -7.64946 82.5844 177.727 11.5182 76.0317 -59.265 49.5023 0.42802 102.886 -23.2643 -39.6519 124.854 3.97051 65.8729 2.21072 8.42282 -90.2823 10.0484 4.2771 -0.916736 -1.6159 4.2326 -1.10441 -24.2078 4.35447 0.413595 -4.19517 4.35447 0.413598 100.115 -6.80517 -88.3977 65.284 -19.6216 -34.43 173.643 44.3778 -178.93 -28.3908 8.4337 -38.4161 -91.248 -42.8914 75.0918 -18.7272 -15.8349 -19.6127 4.49152 51.9855 -5.58497 0.452137 -0.324743 -17.0102 -5.69266 -2.29065 14.335 7.90921 -4.25221 -8.51076 
-354.597 94.9913 331.594 94.3659 42.6584 81.5314 -173.935 20.7128 87.8635 -47.1665 9.72485 -0.446917 69.399 7.44856 0.359972 23.037 -10.333 12.712 177.105 9.77477 77.8446 -54.7298 48.4348 0.214617 101.042 -24.9025 -42.6549 124.118 4.00142 66.2123 1.71929 8.51268 -90.2464 9.86253 3.31515 -0.755771 -1.80447 3.27867 -0.901101 -24.3736 3.38883 0.276662 -4.361 3.38882 0.276645 97.0815 -4.52213 -99.4671 60.0524 -14.0476 -33.064 172.361 55.8903 -177.86 -27.7596 6.59406 -31.6634 -87.6072 -40.3605 80.4558 -12.7766 -18.4797 -13.2808 3.68494 47.5169 -4.63592 10.83 -0.536964 -8.06527 -2.68182 -1.03983 16.3274 3.79934 -3.18988 -5.71537 
-351.609 94.6718 329.631 91.2676 43.8658 82.296 -172.651 28.8733 83.1034 -45.5859 12.3806 -2.8358 68.5833 7.02714 3.44313 22.0009 -4.13631 1.04171 175.687 7.34173 79.1205 -46.5694 42.9354 0.0156817 98.5935 -28.3801 -47.0692 121.168 4.49692 68.2597 1.41077 8.49875 -90.063 9.88255 2.78325 -0.349793 -1.7855 2.76516 -0.47204 -24.3442 2.7596 0.503525 -4.33158 2.75959 0.503514 95.3504 -6.24265 -104.557 54.9234 -8.87545 -31.3283 171.22 62.3551 -176.847 -29.4845 4.42709 -22.412 -85.328 -37.6578 83.8287 -12.0394 -18.5654 0.0759976 8.67176 45.7287 -11.5967 12.0977 -0.133338 -4.70773 0.427086 -0.703186 15.4146 -0.488374 -2.9071 -1.27654 
-347.517 93.5033 326.286 89.3491 43.4904 84.0432 -172.794 32.543 80.4194 -34.6042 11.2434 -4.64644 70.4178 7.27437 -1.24661 23.2456 -7.74378 8.55962 174.166 0.437555 82.0952 -32.6188 32.1727 -0.148674 91.7279 -33.6572 -53.8722 114.949 4.68776 71.7906 1.16686 8.5587 -90.1467 9.76234 2.25966 -0.469906 -1.90676 2.23678 -0.568946 -24.4577 2.29635 0.231302 -4.44501 2.29636 0.23131 92.173 -9.53774 -112.036 47.7828 -2.61309 -29.6854 170.278 66.1589 -175.977 -34.0502 3.6137 -17.1737 -85.0339 -43.1197 85.2205 -11.8792 -17.5119 9.54689 3.77067 43.523 -4.84717 14.0345 -0.81557 -9.39621 0.861311 -0.0186155 17.602 1.12894 -2.63953 -1.74547 
